<svg xmlns="http://www.w3.org/2000/svg" fill="none" viewBox="0 0 1024 1024" height="1024" width="1024">
<rect fill="white" height="1024" width="1024"></rect>
<path fill="#FEFEFE" d="M499.661 298.879C531.472 290.843 566.572 297.599 593.242 316.725C588.298 316.666 583.276 316.055 578.45 317.237C575.554 318.714 574.254 321.748 576.362 324.564C579.868 326.731 584.182 326.199 588.141 326.711C602.855 327.342 616.78 332.581 630.391 337.781C667.008 352.003 701.715 372.232 729.783 399.945C747.964 418.008 765.632 439.064 770.241 465.045C771.955 477.355 772.841 491.281 765.75 502.154C758.344 512.475 744.93 515.174 733.013 515.647C737.445 512.712 742.606 510.033 744.891 504.912C749.638 495.28 747.215 483.599 742.153 474.598C735.712 463.075 723.716 456.142 711.721 451.591C692.752 444.323 672.602 438.69 656.352 425.965C631.159 406.603 613.727 379.244 589.441 358.897C587.924 358.128 584.595 354.898 583.729 357.912C581.05 360.669 584.753 363.388 586.171 365.751C586.939 370.006 587.983 374.26 588.279 378.594C587.806 379.5 586.841 381.312 586.368 382.218C590.957 390.274 598.029 396.558 603.603 403.905C613.136 416.156 622.453 428.565 632.361 440.522C628.5 449.287 624.265 457.973 618.474 465.655C602.559 487.933 577.229 501.839 550.854 507.63C547.092 509.048 541.025 508.831 540.415 513.953C540.552 518.286 545.299 519.153 548.727 518.286C572.816 514.209 596 503.612 614.003 486.968C626.787 488.189 639.412 490.966 651.507 495.339C682.864 507.137 711.091 527.169 732.58 552.855C755.567 580.214 768.311 616.102 766.853 651.892C765.474 689.277 752.1 726.938 726.691 754.77C706.856 777.323 677.33 790.324 647.449 791.013C619.637 792.116 593.104 782.642 566.178 777.343C555.424 774.94 543.96 777.107 535.392 784.158C526.863 791.131 515.36 793.534 504.684 790.855C481.264 785.163 461.783 769.563 444.982 752.938C447.286 753.194 449.729 753.411 451.659 754.888C465.782 764.56 479.491 775.177 495.111 782.346C504.369 786.384 516.502 788.452 525.051 781.814C528.695 779.431 528.892 772.261 524.046 771.355C517.625 770.961 511.046 773.167 504.782 770.961C482.84 763.023 464.147 747.935 441.87 740.825C441.318 742.44 440.215 745.69 439.664 747.325C429.46 735.132 417.741 721.659 418.43 704.7C424.379 703.341 430.839 702.218 436.63 704.917C444.765 708.049 449.552 715.711 454.673 722.29C456.249 720.359 459.282 718.468 457.332 715.671C451.246 701.706 435.448 693.414 420.479 696.782C424.438 693.039 428.397 687.898 434.582 688.864C443.682 688.391 450.891 694.536 456.603 700.859C457.726 700.367 459.971 699.401 461.114 698.929C458.435 691.818 452.211 687.367 445.986 683.604C459.577 686.618 472.774 692.291 483.096 701.844C498.735 716.184 510.12 734.364 521.151 752.288C522.923 753.923 523.948 758.867 527.178 756.976C532.26 756.129 530.054 749.984 529.995 746.576C525.661 716.971 530.369 684.432 549.554 660.598C573.604 631.427 621.291 621.184 652.629 644.525C658.775 648.406 662.478 655.457 669.155 658.451C673.41 656.54 672.839 651.636 670.475 648.445C661.138 634.736 645.519 626.699 629.741 622.76C641.441 606.766 647.803 586.931 647.094 567.096C646.937 563.353 646.504 559.256 643.569 556.577C637.699 557.562 638.132 564.693 637.403 569.203C636.694 586.517 631.396 603.831 620.72 617.619C617.214 623.725 609.217 620.613 603.564 621.736C603.268 621.243 602.677 620.219 602.402 619.707C610.083 613.975 618.593 608.479 622.808 599.478C627.515 589.452 630.687 578.244 630.214 567.135C630.175 561.758 622.138 560.95 620.109 565.579C614.515 576.294 615.756 590.279 606.479 599.123C596.394 608.637 582.35 611.769 570.433 618.249C554.892 625.32 541.852 637.08 532.181 651.045C526.666 658.372 522.175 667.669 513.035 671.057C506.693 673.657 498.007 672.338 494.579 679.566C502.754 690.42 516.384 682.265 526.173 678.542L525.977 681.477C524.716 685.239 523.455 689.021 522.214 692.803C511.46 692.98 500.469 689.947 492.117 682.974C486.464 678.404 481.737 671.412 482.741 663.848C483.529 656.777 488.296 651.183 492.176 645.549C510.731 624.296 524.145 598.847 532.221 571.882C535.274 561.324 538.445 550.589 538.583 539.5C539.016 536.348 537.086 533.807 535.431 531.385C531.866 537.018 529.561 543.301 527.868 549.723C522.667 568.455 517.152 587.266 508.013 604.54C499.799 577.594 496.864 549.408 494.54 521.457C500.213 521.733 506.417 522.58 510.81 518.128C509.116 515.351 507.599 511.55 503.679 511.944C477.128 509.875 450.418 502.43 428.653 486.633C436.059 483.678 444.844 480.467 447.542 472.076C438.974 474.617 429.992 480.743 420.892 476.646C408.168 471.427 404.071 456.89 399.993 445.072C406.671 440.62 417.032 436.661 417.169 427.305C414.057 420.234 404.642 420.943 398.28 419.347C402.692 386.532 417.622 354.859 441.456 331.695C457.509 315.878 477.699 304.178 499.661 298.879ZM504.329 302.228C496.569 303.567 488.946 305.773 481.658 308.728C457.982 318.084 440.688 338.53 428.692 360.315C426.191 363.998 427.865 370.104 432.513 370.951C437.359 372.192 440.176 367.425 442.717 364.235C453.117 349.462 464.541 335.102 478.782 323.836C488.985 315.898 501.138 310.993 513.508 307.566C515.635 306.62 521.663 305.517 518.196 302.267C513.745 300.672 508.879 301.716 504.329 302.228ZM511.972 374.773C509.076 381.115 510.14 388.639 506.516 394.745C503.975 399.512 498.676 401.896 493.575 402.703C483.726 404.18 474.055 398.783 464.246 401.305C455.067 403.136 446.124 410.523 445.651 420.411C450.458 416.767 454.318 411.547 460.247 409.597C470.687 405.894 482.485 409.538 490.62 416.649C495.347 420.312 504.448 428.881 508.958 421.179C505.058 416.787 499.169 414.699 494.697 410.897C500.41 409.203 506.831 407.864 510.948 403.117C516.719 397.07 517.782 388.088 516.581 380.13C516.049 377.688 515.379 373.61 511.972 374.773ZM650.502 413.005C651.408 415.585 652.531 418.323 655.013 419.84C669.175 430.358 685.268 437.961 701.695 444.225C717.689 450.469 735.85 455.373 746.644 469.811C752.809 477.296 754.148 487.125 757.655 495.871C758.58 495.989 760.452 496.245 761.397 496.383C761.043 483.58 759.014 470.048 750.938 459.667C741.326 446.884 725.627 441.31 711.031 436.444C697.46 432.229 684.342 426.753 671.46 420.844C664.605 417.89 658.066 413.753 650.502 413.005ZM543.783 454.211C536.81 455.866 529.542 458.663 524.775 464.237C521.446 467.96 523.239 473.987 527.375 476.311C534.427 480.428 543.034 480.133 550.953 480.014C558.26 479.64 567.144 478.439 571.26 471.486C574.825 466.364 571.635 459.411 566.632 456.614C559.797 452.576 551.346 452.813 543.783 454.211ZM637.994 499.2C635.099 501.603 635.552 506.704 639.117 508.28C648.158 513.106 658.381 515.844 666.437 522.462C670.337 524.904 674.946 530.617 679.752 526.736C684.046 522.757 680.481 516.947 676.778 514.11C666.614 505.897 654.225 500.066 641.303 498.037C640.476 498.313 638.822 498.904 637.994 499.2ZM704.768 543.617C701.853 550.944 708.766 555.77 713.06 560.497C722.534 570.031 729.921 581.553 734.57 594.179C735.909 597.173 737.524 602.649 741.936 601.172C747.294 600.049 746.467 593.45 745.304 589.491C739.966 571.981 728.7 556.577 714.557 545.114C711.819 542.454 708.136 542.907 704.768 543.617ZM681.131 549.762C678.058 551.515 677.251 556.183 679.634 558.823C682.549 563.038 690.507 560.733 690.271 555.396C690.546 550.826 685.071 547.083 681.131 549.762ZM695.352 579.899C692.142 580.549 690.271 583.858 690.33 586.931C692.674 592.367 696.416 597.055 698.76 602.491C700.533 605.958 701.892 610.587 706.403 611.335C713.612 610.942 714.695 602.117 712.745 596.681C710.283 588.959 704.256 579.879 695.352 579.899ZM751.962 624.946C750.721 656.698 744.28 688.962 727.735 716.479C712.647 742.302 687.355 763.595 657.16 768.164C626.609 773.739 596.63 759.163 566.1 763.437C565.686 764.619 564.859 766.982 564.445 768.145C571.241 771.828 579.139 771.69 586.526 773.443C610.379 778.525 634.764 785.301 659.346 781.539C688.912 777.56 715.168 758.966 731.891 734.699C753.853 702.77 761.161 662.115 755.685 624.099C754.739 624.316 752.888 624.73 751.962 624.946Z"></path>
<path fill="#FEFEFE" d="M276.906 423.759C295.5 442.61 298.376 471.958 291.6 496.54C288.015 508.26 282.047 521.753 268.83 524.766L268.948 522.285C271.982 517.872 277.103 513.913 276.177 507.925C276.236 499.987 269.539 494.492 262.96 491.419C252.087 487.086 242.869 496.324 237.531 504.695C235.759 498.293 233.868 491.518 235.956 484.919C239.56 471.072 251.339 461.736 262.941 454.507C273.459 448.105 277.064 435.4 276.906 423.759Z"></path>
<path fill="#FEFEFE" d="M804.711 537.392C821.493 528.253 833.843 512.889 842.746 496.284C847.336 504.656 852.713 512.653 859.489 519.448C864.748 525.042 870.598 530.065 877 534.339C878.359 535.442 879.777 536.506 881.077 537.767C879.58 538.85 878.083 539.914 876.586 540.938C868.471 545.862 861.616 552.539 855.648 559.847C850.586 565.599 846.43 572.099 842.904 578.894C834.296 561.856 820.882 547.477 804.711 537.392Z"></path>
<path fill="#FEFEFE" d="M233.1 688.529C245.233 671.195 261.976 655.812 283.032 650.71C299.046 646.416 316.556 650.415 329.813 660.145C341.926 668.536 350.061 681.162 357.27 693.748C342.498 693.315 327.173 696.605 315.316 705.764C306.393 712.224 300.878 721.975 295.52 731.331C292.29 732.335 289.079 733.359 285.888 734.443C283.721 720.793 273.459 708.187 259.553 705.488C238.457 700.426 215.924 720.694 219.508 742.302C220.69 756.543 235.345 768.381 249.566 764.225C255.377 763.161 262.074 757.311 258.686 750.949C256.303 745.296 249.704 746.537 245.312 748.704C240.683 750.91 236.29 746.419 235.128 742.263C231.622 728.987 247.794 715.474 260.144 721.856C267.904 725.756 270.544 734.6 272.415 742.4C258.154 754.987 256.263 775.452 257.8 793.259C247.774 786.916 235.68 790.009 224.61 788.63C204.578 786.148 184.881 776.752 172.019 760.936C163.273 750.338 158.329 736.59 158.723 722.841C158.9 714.391 162.387 706.571 165.322 698.791L165.716 697.786C180.567 687.15 200.678 684.865 217.519 691.976C222.818 694.733 229.81 693.945 233.1 688.529Z"></path>
<path fill="#FEFEFE" d="M318.093 724.456C325.302 715.593 336.411 710.59 347.678 709.565C357.034 708.423 366.233 711.653 375.589 710.924C384.275 710.156 393.474 710.353 401.313 714.687C404.938 716.755 409.626 718.449 410.945 722.841C416.244 736.117 425.738 747.108 435.232 757.587C453.472 776.752 475.394 793.889 501.414 800.665C491.546 816.166 497.002 838.267 512.307 848.076C520.343 853.63 531.669 855.344 540.395 850.38C545.93 847.308 544.669 838.207 538.819 836.277C534.919 835.588 531.118 837.341 527.257 837.459C517.921 836.139 511.224 826.33 512.169 817.171C512.504 811.675 515.734 807.027 518.472 802.477C528.006 801.256 536.515 796.686 544.177 791.112C552.253 784.749 563.027 786.955 572.245 789.043C594.267 794.283 616.269 800.35 639.019 801.433C633.779 808.11 627.476 814.374 619.125 816.875C609.926 820.539 599.999 817.506 590.485 818.116C585.502 819.712 578.371 822.844 579.159 829.186C579.317 839.232 578.608 849.474 575.003 858.968C571.3 870.117 563.973 879.512 556.586 888.455C547.21 894.226 536.101 896.866 525.287 898.363C509.983 895.96 495.111 889.302 484.534 877.779C476.025 869.171 470.884 857.905 468.087 846.264C456.82 844.964 444.844 846.52 434.424 841.142C425.423 837.341 417.859 828.123 407.262 829.757C400.033 831.629 394.065 836.632 386.816 838.464C372.575 842.344 357.093 838.444 345.393 829.757C337.731 823.415 327.016 825.542 318.585 820.972C302.276 812.798 290.418 796.075 288.587 777.855C287.129 767.77 289.729 757.764 292.526 748.172C297.765 746.694 303.852 745.867 307.515 741.416C311.396 735.999 313.582 729.479 318.093 724.456ZM352.878 749.649C341.316 752.84 329.911 761.664 327.922 774.113C325.538 789.319 339.307 803.245 353.824 804.722C359.28 805.431 364.854 799.956 362.707 794.48C361.545 789.949 356.364 789.693 352.74 788.354C347.52 786.896 342.261 781.854 343.305 776.043C345.393 769.957 351.44 765.978 357.468 764.481C371.196 761.073 385.634 775.886 381.321 789.555C379.844 796.292 374.309 800.743 370.527 806.121C367.08 812.66 375.766 819.771 381.636 815.497C393.612 806.219 400.427 789.575 396.035 774.704C391.071 756.878 370.921 744.646 352.878 749.649Z"></path>
<path fill="#62608D" d="M293.077 134.132C360.048 93.1425 438.58 70.609 517.211 72.0666C601.732 72.5393 685.858 99.8396 754.641 148.964C805.676 184.734 848.872 231.535 880.309 285.367C913.971 341.543 933.767 405.658 939.066 470.836C945.447 544.089 934.358 619.175 905.009 686.717C897.761 702.967 889.823 719 880.092 733.911C877.079 730.464 873.632 727.431 870.874 723.787C870.933 717.72 873.927 712.126 875.857 706.473C903.768 654.61 918.659 596.287 922.362 537.668C926.558 465.498 913.696 391.909 882.082 326.672C854.25 267.817 812.492 215.6 761.043 175.674C707.289 132.832 642.269 104.252 574.294 93.9107C502.123 82.7621 426.979 91.5668 359.496 119.616C298.908 144.552 244.366 184.183 202.136 234.292C156.773 287.77 125.533 352.909 111.017 421.455C91.8118 513.539 101.306 612.655 143.93 697.058C139.873 702.396 136.308 708.088 133.294 714.076C94.2936 642.536 79.0874 559.256 85.3708 478.34C90.6102 407.253 112.356 337.19 149.938 276.503C185.432 218.535 235.069 169.469 293.077 134.132Z"></path>
<path fill="#D7E2F0" d="M359.497 119.615C426.979 91.5667 502.124 82.7621 574.294 93.9107C642.269 104.252 707.289 132.832 761.043 175.674C812.492 215.6 854.25 267.817 882.082 326.672C913.696 391.909 926.558 465.498 922.363 537.668C918.66 596.287 903.769 654.61 875.858 706.473C876.764 686.5 864.67 668.398 849.661 656.284C865.005 619.707 873.671 580.45 876.587 540.938C878.084 539.914 879.58 538.85 881.077 537.767C879.777 536.506 878.359 535.442 877 534.339C883.047 424.764 840.107 313.475 762.56 235.927C756.985 230.018 750.584 224.995 744.911 219.204C744.675 208.785 743.749 197.99 738.037 188.91C730.059 175.063 716.626 162.93 700.317 160.723C689.7 159.148 679.969 164.269 670.101 167.164C603.919 132.497 526.095 120.699 452.526 133.581C385.635 144.513 321.836 175.26 272.514 221.863C250.335 242.565 232.647 267.423 215.845 292.517C196.187 319.581 181.631 350.053 170.069 381.332C135.638 475.484 137.884 583.169 179.287 674.78C165.479 678.148 153.129 686.342 143.931 697.058C101.306 612.655 91.8121 513.539 111.017 421.455C125.534 352.909 156.773 287.77 202.136 234.292C244.367 184.183 298.908 144.552 359.497 119.615Z"></path>
<path fill="#3F3477" d="M452.526 133.581C526.095 120.699 603.918 132.497 670.101 167.164C668.249 168.287 666.496 169.449 664.743 170.631C665.905 174.433 664.389 177.781 661.867 180.598C659.366 180.106 656.983 179.495 654.501 179.199C623.675 164.269 590.386 154.499 556.566 149.299C545.359 147.231 534.112 150.126 523.101 151.958C465.349 162.674 410.512 191.884 371.807 236.4C333.082 281.073 311.021 341.287 317.049 400.596C320.594 435.696 334.047 469.614 354.926 497.998C362.411 508.024 370.684 517.459 379.745 526.106C390.736 536.801 403.007 546.138 416.086 554.135C431.174 563.471 447.464 570.858 464.462 575.959C462.847 577.141 461.39 578.441 459.834 579.643C460.818 583.09 461.744 586.517 462.709 589.984C398.713 572.138 344.428 523.782 318.172 462.898C301.803 424.567 297.115 381.273 305.329 340.381C315.69 285.269 346.339 234.726 389.318 198.916C418.824 174.058 453.57 155.799 490.325 144.355C424.635 148.511 359.851 171.183 307.437 211.306C270.76 238.823 241.097 275.4 221.222 316.705C190.101 382.12 183.463 459.746 207.08 528.627C219.686 566.859 240.959 602.038 268.495 631.368L268.476 632.431C261.818 628.236 256.323 622.583 251.359 616.516C250.689 616.89 249.33 617.639 248.66 617.993C250.079 623.686 251.319 629.398 252.875 635.051C198.176 576.038 171.546 492.916 179.129 413.064C183.147 384.858 189.116 356.828 199.693 330.277C204.086 317.257 211.669 305.616 215.845 292.517C232.646 267.423 250.335 242.565 272.514 221.863C321.835 175.26 385.634 144.513 452.526 133.581Z"></path>
<path fill="#FDD68F" d="M307.437 211.306C359.851 171.183 424.635 148.511 490.325 144.355C453.57 155.799 418.824 174.058 389.318 198.916C346.339 234.726 315.69 285.269 305.329 340.381C297.115 381.273 301.803 424.567 318.172 462.898C344.428 523.782 398.713 572.138 462.709 589.984C465.211 590.693 467.673 591.402 470.214 592.131C463.379 607.179 453.944 621.086 448.98 636.922C447.956 640.96 447.424 645.136 447.464 649.331C420.538 642.595 392.331 652.187 370.487 668.083C358.59 649.666 341.887 633.042 320.2 627.133C307.831 623.114 294.318 624.316 282.599 629.772C283.012 618.308 281.555 606.667 283.426 595.322C288.094 588.585 295.756 584.981 301.882 579.8C301.882 579.308 301.843 578.303 301.843 577.791C295.284 571.981 285.592 568.278 282.914 559.197C281.948 548.718 282.559 538.121 282.441 527.623C282.145 523.723 284.332 520.413 286.203 517.222C296.84 500.559 299.558 480.015 297.982 460.652C296.465 446.116 292.467 430.988 282.48 419.899C280.215 417.043 276.67 416.038 273.42 414.915C273.262 423.188 275.094 432.505 269.874 439.694C263.02 449.602 250.019 452.399 242.574 461.795C230.125 475.051 226.146 498.057 238.851 512.436C241.924 507.315 244.327 501.484 249.153 497.742C253.348 494.847 258.312 493.389 262.96 491.419C269.539 494.492 276.236 499.987 276.177 507.925C277.103 513.913 271.982 517.873 268.948 522.285L268.83 524.767C268.771 536.959 269.795 549.152 269.126 561.344C269.283 567.844 262.429 570.523 258.253 574.108C256.421 575.841 252.659 577.062 253.959 580.214C258.332 584.469 264.477 586.793 268.082 591.875C269.776 597.488 268.692 603.516 268.732 609.287C226.875 555.356 205.484 485.412 212.043 417.279C217.815 354.307 243.007 292.261 286.893 246.19C289.177 243.846 290.97 241.029 291.856 237.818C283.78 242.349 277.655 249.42 271.43 256.097C253.013 276.267 237.728 299.293 226.206 324.052C225.299 323.954 223.468 323.777 222.542 323.678C222.089 321.354 221.636 319.03 221.222 316.705C241.097 275.4 270.761 238.823 307.437 211.306ZM303.261 242.999C293.274 246.958 291.521 261.947 300.385 268.093C308.303 274.75 321.54 269.885 323.707 259.918C326.779 248.79 313.74 237.621 303.261 242.999ZM277.635 308.039C268.495 311.151 265.797 324.407 273.262 330.671C279.841 337.269 292.23 334.196 295.264 325.471C299.715 315.405 287.779 303.213 277.635 308.039ZM309.466 530.538C306.097 533.512 302.118 535.639 298.297 537.924C299.065 542.1 303.281 543.558 306.373 545.705C311.494 548.699 314.449 554.037 318.132 558.488C321.835 553.229 325.637 547.753 331.487 544.68C333.929 542.789 337.928 541.805 338.066 538.101C334.54 535.462 330.62 533.453 327.193 530.735C323.411 527.82 321.894 522.974 318.447 519.783C314.646 522.6 312.932 527.367 309.466 530.538ZM343.739 535.304C342.734 541.962 345.058 548.62 344.251 555.317C343.364 566.249 336.47 576.058 327.429 581.947C320.535 586.557 312.223 588.073 304.718 591.382C306.846 598.414 313.799 602.157 320.141 604.796C332.334 609.858 347.323 606.884 356.542 597.41C372.102 581.967 370.605 553.505 353.981 539.402C351.125 537.176 347.698 533.551 343.739 535.304Z"></path>
<path fill="#8B7AB5" d="M523.101 151.958C534.112 150.127 545.359 147.231 556.566 149.299C590.386 154.499 623.675 164.269 654.501 179.2C633.425 199.212 614.2 221.411 590.012 237.858C568.621 253.202 543.842 264.469 526.43 284.835C493.713 285.525 461.587 298.407 437.733 320.822C438.009 316.587 435.232 313.672 432.258 311.151C422.901 319.64 409.133 320.724 400.762 330.336C392.863 339.042 381.971 344.065 373.481 352.121C372.319 351.865 369.955 351.392 368.793 351.136C371.649 348.713 374.663 346.468 377.677 344.203C368.912 338.254 361.643 330.415 356.207 321.334C350.928 330.553 343.64 338.491 334.717 344.242C343.601 349.856 350.908 357.597 356.384 366.539C352.977 369.967 348.584 372.055 344.29 374.064C336.175 377.373 332.275 386.099 324.691 390.235C320.476 392.205 317.994 396.144 317.049 400.596C311.022 341.288 333.082 281.073 371.807 236.4C410.512 191.885 465.349 162.674 523.101 151.958ZM511.342 177.131C516.227 180.894 520.619 185.286 524.263 190.289C527.631 185.227 531.906 180.874 536.83 177.289C531.768 173.586 527.237 169.174 524.066 163.737C520.521 168.839 516.227 173.33 511.342 177.131ZM584.989 173.763C579.474 174.768 580.597 183.651 586.112 183.1C592.435 183.257 591.332 172.089 584.989 173.763ZM480.26 180.44C473.385 193.204 463.418 204.412 450.753 211.641C463.694 218.811 473.878 230.255 480.929 243.156C487.548 229.88 498.263 218.535 511.302 211.464C498.125 204.353 488.473 192.653 480.26 180.44ZM550.46 201.654C554.597 205.259 558.536 209.12 561.668 213.65C565.076 209.238 568.976 205.22 573.506 201.891C569.035 198.404 565.076 194.307 561.924 189.6C558.694 194.15 554.853 198.227 550.46 201.654ZM390.48 252.906C401.412 258.599 408.798 268.605 416.067 278.178C421.976 267.817 430.406 258.973 440.609 252.768C429.973 246.623 421.464 237.326 415.436 226.67C409.527 237.365 401.313 246.997 390.48 252.906ZM535.431 239C531.216 242.368 536.85 249.794 541.025 246.327C546.757 243.077 540.257 234.233 535.431 239ZM465.053 270.653C459.361 272.485 462.65 281.546 468.146 279.399C474.252 277.882 470.569 267.66 465.053 270.653ZM365.957 281.369C368.872 284.107 371.649 286.982 374.289 290.016C376.928 287.101 379.686 284.304 382.581 281.625C379.725 278.828 377.046 275.893 374.545 272.8C371.807 275.794 368.931 278.651 365.957 281.369ZM400.368 309.122C397.669 312.175 394.833 315.071 391.839 317.809C394.951 320.409 397.807 323.284 400.309 326.495C402.869 323.363 405.725 320.487 408.877 317.966C405.942 315.11 403.125 312.155 400.368 309.122Z"></path>
<path fill="#FDFDFD" d="M720.506 300.869C730.65 295.216 738.41 286.194 744.004 276.129C749.697 286.175 757.517 295.137 767.503 301.125C757.536 306.502 749.657 315.13 744.339 325.037C737.819 315.72 730.433 306.758 720.506 300.869Z"></path>
<path fill="#FDFDFD" d="M334.717 344.242C343.64 338.49 350.928 330.552 356.207 321.334C361.643 330.414 368.912 338.254 377.677 344.202C374.663 346.468 371.649 348.713 368.793 351.136C363.849 355.587 360.107 361.103 356.384 366.539C350.908 357.597 343.601 349.856 334.717 344.242Z"></path>
<path fill="#FDFDFD" d="M771.521 602.826C783.812 605.328 795.513 612.261 801.835 623.351C806.917 631.249 807.666 640.881 811.487 649.312C816.116 657.033 826.023 658.234 832.957 663.159C846.115 671.668 858.681 684.747 860.001 701.115C861.124 711.22 852.674 718.961 852.536 728.79C849.148 731.153 844.578 732.946 843.534 737.378C841.545 744.804 847.06 752.032 845.268 759.438C842.608 767.337 831.361 766.648 828.151 774.034C827.264 779.707 828.407 785.458 827.796 791.151C826.969 796.528 823.089 800.684 819.425 804.407L817.928 802.437C823.975 783.115 821.099 760.975 809.182 744.449C798.349 729.322 781.134 719.65 763.071 716.046C768.508 700.958 781.705 688.706 797.207 684.57C807.548 681.654 821.828 687.367 822.852 699.145C821.926 706.394 813.713 707.635 807.843 708.246C800.575 709.23 800.122 720.655 806.996 722.743C821.355 726.091 838.433 714.47 838.295 699.106C838.413 684.707 826.398 672.732 812.905 669.619C799.61 665.916 785.743 670.703 774.614 678.01C779.597 653.153 778.218 627.231 771.521 602.826Z"></path>
<path fill="#FDFDFD" d="M231.406 820.519C237.531 819.85 243.559 818.353 249.369 816.284C254.353 820.185 259.257 824.203 264.103 828.3C316.793 872.244 381.36 901.652 449.02 912.958C529.621 926.726 614.515 914.061 687.474 877.109C695.904 872.835 704.965 869.23 711.544 862.179C731.064 861.214 750.209 853.453 764.647 840.217C768.39 835.982 774.2 836.277 779.341 835.548C770.793 841.142 763.347 848.214 755.035 854.142C692.949 899.781 618.14 928.775 541.006 933.404C428.062 941.558 312.676 899.308 231.406 820.519Z"></path>
<path fill="#383276" d="M670.101 167.165C679.969 164.269 689.7 159.148 700.317 160.724C716.626 162.93 730.059 175.063 738.037 188.91C743.749 197.991 744.675 208.785 744.911 219.204C750.584 224.995 756.985 230.018 762.56 235.927C759.506 240.753 755.193 244.476 749.953 246.662C746.585 243.196 742.685 240.359 738.785 237.582C720.408 280.738 681.86 312.392 639.117 329.843C663.778 339.948 687.454 352.672 708.964 368.47C730.69 384.956 750.978 404.003 766.026 426.931C778.948 446.431 785.29 470.855 780.464 494C778.652 502.666 773.334 510.053 767.149 516.139C757.044 522.482 745.068 526.48 733.073 524.57C717.276 522.423 705.3 511.038 693.482 501.406C675.124 484.23 660.016 463.784 640.161 448.145C635.67 458.525 629.545 467.999 623.064 477.198C636.695 479.64 650.108 483.304 662.971 488.484C659.11 490.71 655.289 493.015 651.507 495.339C639.413 490.966 626.787 488.189 614.004 486.968C596 503.612 572.817 514.209 548.727 518.286C545.3 519.153 540.553 518.286 540.415 513.953C541.026 508.832 547.092 509.048 550.854 507.63C577.229 501.839 602.559 487.933 618.475 465.655C624.266 457.974 628.501 449.287 632.361 440.522C622.454 428.566 613.137 416.156 603.603 403.905C598.029 396.558 590.958 390.274 586.368 382.218C586.841 381.312 587.806 379.5 588.279 378.594C615.855 398.074 630.096 431.028 657.455 450.823C671.066 460.298 686.962 465.636 702.621 470.599C712.785 473.79 723.067 478.124 730.453 486.121C735.062 490.809 737.308 497.112 739.829 503.06C741.365 494.236 740.834 484.703 735.634 477.099C727.302 463.843 711.642 458.702 697.716 453.64C680.521 447.908 663.384 440.916 649.34 429.176C626.216 410.149 608.744 385.37 586.171 365.751C584.753 363.388 581.05 360.67 583.729 357.912C584.596 354.898 587.924 358.129 589.441 358.897C613.728 379.244 631.16 406.603 656.352 425.966C672.603 438.69 692.753 444.323 711.721 451.592C723.717 456.142 735.712 463.075 742.153 474.598C747.215 483.6 749.638 495.28 744.891 504.912C742.606 510.033 737.446 512.712 733.014 515.647C744.931 515.174 758.344 512.476 765.75 502.154C772.841 491.281 771.955 477.356 770.241 465.045C765.632 439.064 747.964 418.008 729.783 399.946C701.715 372.232 667.009 352.003 630.392 337.781C616.781 332.581 602.855 327.342 588.141 326.712C584.182 326.199 579.868 326.731 576.362 324.565C574.255 321.748 575.555 318.715 578.45 317.237C583.276 316.055 588.299 316.666 593.243 316.725C566.573 297.599 531.472 290.843 499.661 298.88C477.699 304.178 457.509 315.878 441.456 331.695C417.623 354.859 402.692 386.532 398.28 419.347C404.642 420.943 414.058 420.234 417.17 427.305C417.032 436.661 406.671 440.62 399.994 445.072C404.071 456.89 408.168 471.427 420.893 476.646C429.993 480.743 438.974 474.618 447.543 472.077C444.844 480.468 436.059 483.678 428.653 486.633C450.418 502.43 477.128 509.876 503.68 511.944C507.599 511.55 509.116 515.351 510.81 518.129C506.418 522.58 500.213 521.733 494.54 521.457C496.864 549.408 499.799 577.594 508.013 604.54C517.153 587.266 522.668 568.455 527.868 549.723C529.562 543.302 531.866 537.018 535.431 531.385C537.086 533.808 539.016 536.349 538.583 539.5C538.445 550.59 535.274 561.325 532.221 571.882C524.145 598.848 510.731 624.296 492.176 645.55C493.654 641.472 495.151 637.415 496.667 633.357C490.916 635.268 487.922 641.374 482.032 642.871C488.808 633.515 496.234 624.612 502.301 614.743C496.648 601.408 493.319 587.285 490.502 573.123C481.678 590.673 472.696 608.164 463.517 625.537C459.519 632.904 456.328 640.98 456.722 649.528C454.752 651.38 452.782 653.271 450.832 655.162C450.399 649.056 449.67 642.989 448.981 636.922C453.944 621.086 463.379 607.18 470.214 592.131C467.673 591.402 465.211 590.693 462.71 589.984C461.744 586.517 460.819 583.09 459.834 579.643C461.39 578.441 462.847 577.141 464.463 575.96C468.501 577.063 472.617 577.969 476.754 578.835C479.945 570.878 485.243 563.708 487.311 555.376C486.642 543.558 484.495 531.858 483.825 520.02C473.346 517.873 462.985 515.154 452.92 511.53C437.852 505.424 423.059 497.486 411.851 485.471C402.751 475.937 394.971 464.808 391.524 451.946C384.039 427.817 389.338 401.837 398.32 378.87C407.045 356.986 420.183 336.659 437.734 320.822C461.587 298.407 493.713 285.525 526.43 284.835C543.842 264.469 568.621 253.202 590.012 237.858C614.2 221.411 633.425 199.212 654.501 179.2C656.983 179.495 659.366 180.106 661.868 180.598C664.389 177.781 665.906 174.433 664.743 170.631C666.496 169.449 668.249 168.287 670.101 167.165ZM657.928 191.609C645.814 203.132 634.607 215.6 622.04 226.67C607.346 239.906 591.037 251.252 574.097 261.455C562.476 268.822 550.244 275.755 540.671 285.801C555.03 287.593 569.094 291.789 582.015 298.308C598.206 288.125 614.516 277.863 628.402 264.567C643.273 251.074 653.024 232.874 668.643 220.15C675.597 214.635 683.574 208.942 692.812 208.844C700.75 208.666 706.58 216.821 705.201 224.365C703.409 236.006 696.712 246.111 691.118 256.255C674.493 286.155 646.07 307.743 615.461 321.925C619.105 322.575 622.926 325.175 626.688 323.58C648.946 314.657 670.495 303.213 688.616 287.317C709.003 269.294 726.238 246.347 732.679 219.52C736.126 205.712 729.094 191.569 719.285 182.154C712.548 176.048 703.921 170.474 694.427 171.616C680.186 173.29 668.151 182.134 657.928 191.609ZM640.398 262.656C625.408 278.394 607.405 290.843 588.83 301.952C593.893 305.537 598.837 309.28 603.544 313.337C605.061 314.952 606.617 316.568 608.173 318.183C633.976 306.936 658.125 290.626 675.419 268.172C683.653 256.925 690.704 244.752 696.338 232.008C698.76 226.315 700.75 216.211 692.044 215.383C667.974 221.864 656.333 245.815 640.398 262.656ZM397.256 426.379C397.433 430.082 397.63 433.785 397.886 437.488C402.948 436.484 407.794 433.352 409.35 428.191C405.332 427.384 401.294 426.793 397.256 426.379ZM678.984 472.037C693.915 487.362 709.318 507.433 732.876 507.472C731.97 500.381 728.07 494.177 722.633 489.706C710.283 479.286 693.363 478.262 678.984 472.037Z"></path>
<path fill="#FCFCFC" d="M511.342 177.131C516.227 173.33 520.521 168.839 524.066 163.737C527.237 169.174 531.768 173.586 536.83 177.289C531.906 180.874 527.631 185.227 524.263 190.289C520.619 185.286 516.227 180.893 511.342 177.131Z"></path>
<path fill="#FCFCFC" d="M695.471 328.051C699.647 324.683 703.468 320.921 707.072 316.922C710.224 320.999 713.809 324.742 717.748 328.071C713.789 331.518 710.204 335.339 707.053 339.515C703.704 335.181 699.883 331.262 695.471 328.051Z"></path>
<path fill="#FCFCFC" d="M678.984 472.037C693.363 478.262 710.283 479.286 722.633 489.706C728.07 494.177 731.97 500.381 732.876 507.472C709.318 507.433 693.915 487.362 678.984 472.037Z"></path>
<path fill="#FDFDFC" d="M657.928 191.609C668.151 182.134 680.186 173.29 694.427 171.616C703.921 170.474 712.548 176.048 719.285 182.154C729.094 191.569 736.126 205.712 732.679 219.52C726.238 246.347 709.003 269.294 688.616 287.317C670.495 303.213 648.946 314.657 626.688 323.58C622.926 325.175 619.105 322.575 615.461 321.925C646.07 307.743 674.493 286.155 691.118 256.255C696.712 246.111 703.409 236.006 705.201 224.365C706.58 216.821 700.75 208.666 692.812 208.844C683.574 208.942 675.596 214.635 668.643 220.15C653.023 232.874 643.273 251.074 628.402 264.567C614.516 277.863 598.206 288.125 582.015 298.308C569.094 291.788 555.03 287.593 540.671 285.8C550.244 275.755 562.476 268.822 574.097 261.455C591.036 251.252 607.346 239.906 622.04 226.67C634.607 215.6 645.814 203.131 657.928 191.609ZM704.433 181.169C705.182 188.24 711.583 193.204 713.139 200.138C719.639 219.244 711.701 239.276 702.207 255.861C698.189 263.562 692.319 270.259 689.68 278.631C696.022 277.213 699.528 271.284 703.468 266.675C715.326 251.114 725.864 233.248 727.164 213.295C728.168 201.438 721.806 189.915 712.588 182.843C710.204 181.642 706.816 178.352 704.433 181.169ZM665.393 208.863C646.74 219.086 633.563 236.124 619.125 251.212C606.006 265.158 590.19 276.188 576.795 289.779C580.755 292.182 584.655 289.11 588.043 287.179C600.649 279.084 613.097 270.614 624.108 260.371C640.358 245.796 652.373 226.867 670.239 213.985C674.789 210.479 680.737 208.174 683.219 202.6C676.739 202.777 670.889 205.712 665.393 208.863Z"></path>
<path fill="#FAFBFA" d="M584.989 173.763C591.332 172.089 592.435 183.257 586.112 183.1C580.597 183.651 579.474 174.768 584.989 173.763Z"></path>
<path fill="#FEFDFD" d="M480.259 180.44C488.473 192.653 498.125 204.353 511.302 211.463C498.263 218.535 487.547 229.88 480.929 243.156C473.878 230.254 463.694 218.81 450.753 211.641C463.418 204.412 473.385 193.204 480.259 180.44Z"></path>
<path fill="#FEFDFD" d="M390.48 252.906C401.313 246.997 409.527 237.365 415.436 226.67C421.463 237.326 429.972 246.623 440.609 252.768C430.406 258.973 421.975 267.817 416.066 278.178C408.798 268.605 401.412 258.599 390.48 252.906Z"></path>
<path fill="#FEFDFD" d="M799.314 397.247C802.919 393.288 805.834 388.797 808.729 384.326C814.284 393.248 821.513 401.088 830.455 406.702C822.025 412.276 814.757 419.465 809.576 428.152C809.32 428.073 808.828 427.896 808.572 427.817C802.722 419.741 796.3 412 787.673 406.78C791.75 403.846 795.749 400.792 799.314 397.247Z"></path>
<path fill="#FEFDFD" d="M463.517 625.537C472.696 608.164 481.678 590.673 490.502 573.123C493.319 587.285 496.647 601.408 502.3 614.743C496.234 624.611 488.808 633.515 482.032 642.871C475.099 650.947 471.691 661.662 473.346 672.259C465.27 666.941 458.376 659.357 456.721 649.528C456.327 640.98 459.518 632.904 463.517 625.537Z"></path>
<path fill="#FEFDFD" d="M741.385 753.746C747.432 746.399 751.647 737.693 757.556 730.346C776.209 733.576 794.666 745.119 801.796 763.279C808.375 778.919 806.543 798.537 794.981 811.4C788.047 819.003 777.45 821.76 767.444 821.485C761.712 820.854 757.477 825.148 753.774 828.832C748.988 824.045 742.508 822.43 735.948 823.71C712.351 826.507 689.049 815.378 673.39 798.124C695.116 792.825 715.483 781.834 731.103 765.722C737.406 769.996 743.748 775.866 744.615 783.902C745.068 790.501 741.306 798.557 734.254 799.857C727.932 800.724 723.972 794.637 718.339 793.377C712.115 792.707 708.333 801.118 712.154 805.707C719.56 814.472 733.112 818.589 743.65 813.172C757.655 806.298 763.643 787.921 758.108 773.68C754.976 765.328 748.515 758.828 741.385 753.746Z"></path>
<path fill="#E0D1E0" d="M704.433 181.169C706.816 178.352 710.204 181.642 712.588 182.843C721.806 189.915 728.168 201.438 727.163 213.295C725.863 233.248 715.325 251.114 703.468 266.675C699.528 271.284 696.022 277.213 689.68 278.631C692.319 270.259 698.189 263.562 702.207 255.861C711.701 239.276 719.639 219.244 713.139 200.138C711.583 193.204 705.181 188.24 704.433 181.169Z"></path>
<path fill="#FCFBFC" d="M550.46 201.654C554.853 198.227 558.694 194.15 561.924 189.6C565.076 194.307 569.035 198.404 573.506 201.891C568.976 205.219 565.076 209.238 561.668 213.65C558.536 209.119 554.597 205.259 550.46 201.654Z"></path>
<path fill="#DFD0E0" d="M665.393 208.863C670.889 205.712 676.739 202.777 683.219 202.6C680.737 208.174 674.789 210.479 670.239 213.985C652.373 226.867 640.358 245.796 624.108 260.371C613.097 270.614 600.649 279.084 588.043 287.179C584.655 289.11 580.755 292.182 576.795 289.779C590.189 276.188 606.006 265.158 619.125 251.212C633.563 236.124 646.74 219.086 665.393 208.863Z"></path>
<path fill="#FAC3A5" d="M640.397 262.656C656.332 245.815 667.973 221.864 692.043 215.383C691.393 230.589 683.042 243.668 675.261 256.196C658.302 282.413 631.731 300.869 603.544 313.337C598.836 309.28 593.892 305.537 588.83 301.952C607.405 290.843 625.408 278.394 640.397 262.656Z"></path>
<path fill="#DA4F83" d="M692.043 215.383C700.749 216.211 698.76 226.315 696.337 232.008C690.704 244.752 683.652 256.925 675.419 268.172C658.125 290.626 633.976 306.936 608.173 318.183C606.617 316.568 605.061 314.952 603.544 313.337C631.731 300.869 658.302 282.413 675.261 256.196C683.042 243.668 691.393 230.589 692.043 215.383Z"></path>
<path fill="#FCFDFD" d="M356.719 418.422C362.353 416.452 365.346 425.414 359.733 427.463C354.021 429.491 350.83 420.076 356.719 418.422Z"></path>
<path fill="#61618D" d="M762.559 235.927C840.107 313.475 883.047 424.764 877 534.339C870.599 530.065 864.748 525.042 859.489 519.448C859.529 508.615 859.844 497.762 858.76 486.987C857.204 448.598 847.179 410.956 833.371 375.265C820.213 342.607 802.84 311.604 781.449 283.634C771.758 270.653 760.649 258.815 749.953 246.662C755.193 244.476 759.506 240.753 762.559 235.927Z"></path>
<path fill="#CD5F84" d="M271.43 256.097C277.654 249.42 283.78 242.349 291.856 237.818C290.97 241.029 289.177 243.846 286.892 246.19C243.007 292.261 217.814 354.307 212.043 417.279C205.484 485.412 226.875 555.356 268.732 609.287C268.692 603.516 269.776 597.489 268.082 591.875C264.477 586.793 258.332 584.469 253.959 580.214C252.659 577.063 256.421 575.841 258.253 574.108C262.429 570.523 269.283 567.844 269.125 561.344C269.795 549.152 268.771 536.959 268.83 524.767C282.047 521.753 288.015 508.26 291.6 496.541C298.376 471.958 295.5 442.61 276.906 423.76C277.063 435.401 273.459 448.105 262.941 454.507C251.339 461.736 239.56 471.072 235.956 484.919C233.868 491.518 235.759 498.294 237.531 504.695C242.869 496.324 252.087 487.086 262.96 491.419C258.312 493.389 253.348 494.847 249.153 497.742C244.327 501.485 241.924 507.315 238.851 512.436C226.146 498.057 230.125 475.051 242.574 461.795C250.019 452.399 263.019 449.602 269.874 439.695C275.094 432.505 273.262 423.188 273.419 414.916C276.669 416.038 280.215 417.043 282.48 419.899C292.467 430.988 296.465 446.116 297.982 460.652C299.558 480.015 296.839 500.559 286.203 517.223C284.332 520.414 282.145 523.723 282.441 527.623C282.559 538.121 281.948 548.718 282.913 559.197C285.592 568.278 295.283 571.981 301.843 577.791C301.843 578.303 301.882 579.308 301.882 579.801C295.756 584.981 288.094 588.585 283.426 595.322C281.554 606.667 283.012 618.308 282.598 629.772C294.318 624.316 307.83 623.115 320.2 627.133C341.887 633.042 358.59 649.666 370.487 668.083C392.331 652.188 420.538 642.595 447.464 649.331C447.72 650.572 448.232 653.094 448.488 654.354C435.823 654.512 423.019 655.3 410.807 658.904C394.813 663.159 380.375 671.786 367.513 681.989C356.502 663.277 341.06 645.963 320.259 638.222C306.491 632.628 291.186 632.963 276.926 636.312C277.241 625.124 276.965 613.916 277.024 602.708C276.098 602.058 274.286 600.719 273.38 600.049C273.282 612.399 272.907 624.749 273.262 637.1C271.666 635.504 270.13 633.909 268.476 632.431L268.495 631.368C268.771 626.699 269.5 621.499 265.541 618.092C227.131 574.856 204.519 518.385 200.382 460.849C197.526 414.088 206.607 366.598 226.205 324.052C237.728 299.293 253.013 276.267 271.43 256.097ZM273.932 528.292C272.789 537.511 273.676 546.867 273.479 556.144C274.306 555.868 275.941 555.297 276.768 555.021C277.379 545.074 277.123 535.068 276.768 525.101C276.059 525.909 274.641 527.485 273.932 528.292ZM277.556 561.246C272.966 567.982 267.491 574.029 261.306 579.308C267.648 583.582 273.085 589.019 277.241 595.46C282.283 589.137 288.251 583.641 294.318 578.284C287.818 573.576 282.264 567.726 277.556 561.246Z"></path>
<path fill="#FBFBFB" d="M535.431 239C540.257 234.233 546.757 243.077 541.025 246.327C536.849 249.794 531.216 242.368 535.431 239Z"></path>
<path fill="#947AB2" d="M738.785 237.582C742.685 240.359 746.585 243.196 749.953 246.662C760.649 258.815 771.758 270.653 781.449 283.634C802.84 311.604 820.213 342.607 833.371 375.265C847.178 410.956 857.204 448.598 858.76 486.987C854.447 480.743 854.289 473.121 852.556 466.03C849.562 458.072 844.756 449.917 836.246 447.042C835.912 445.939 835.242 443.732 834.887 442.629C837.251 442.432 840.481 443.279 841.762 440.541C844.637 436.76 839.122 430.969 835.478 434.357C833.036 435.282 833.706 438.611 832.898 440.601C825.846 435.223 818.539 429.708 809.576 428.152C814.757 419.465 822.025 412.276 830.455 406.702C821.513 401.088 814.284 393.249 808.729 384.326C805.834 388.797 802.919 393.288 799.314 397.247C797.345 396.538 795.395 396.006 793.385 395.553C788.304 390.846 781.882 388.265 775.441 386.079C770.419 384.956 768.646 379.776 765.081 376.742C758.285 373.729 750.367 373.886 743.985 369.868C736.618 365.298 729.271 359.763 720.388 358.838C715.601 360.571 712.568 365.121 708.963 368.47C687.454 352.672 663.778 339.948 639.117 329.843C681.86 312.392 720.407 280.738 738.785 237.582ZM720.506 300.869C730.433 306.758 737.82 315.721 744.339 325.037C749.658 315.13 757.537 306.502 767.503 301.125C757.517 295.137 749.697 286.175 744.005 276.129C738.411 286.194 730.65 295.216 720.506 300.869ZM695.471 328.051C699.883 331.262 703.704 335.181 707.053 339.515C710.204 335.339 713.789 331.518 717.748 328.071C713.809 324.742 710.224 320.999 707.072 316.922C703.468 320.921 699.647 324.683 695.471 328.051ZM778.613 332.798C774.85 339.101 769.709 344.38 763.761 348.615C769.808 352.869 774.85 358.325 779.125 364.353C783.005 358.227 788.087 353.007 793.976 348.772C787.949 344.38 782.847 338.904 778.613 332.798ZM742.882 355.371C736.047 355.509 737.229 366.559 743.985 364.865C749.855 363.979 748.496 354.839 742.882 355.371Z"></path>
<path fill="#CB6285" d="M303.261 242.999C313.74 237.621 326.779 248.79 323.706 259.918C321.54 269.885 308.303 274.75 300.385 268.093C291.521 261.947 293.274 246.958 303.261 242.999ZM305.29 249.006C299.932 251.311 299.203 259.249 303.438 262.952C307.693 267.265 316.202 265.355 317.561 259.209C320.338 252.217 311.632 245.342 305.29 249.006Z"></path>
<path fill="#FDF9F8" d="M305.29 249.006C311.632 245.343 320.338 252.217 317.561 259.209C316.202 265.355 307.693 267.265 303.438 262.952C299.203 259.249 299.932 251.311 305.29 249.006Z"></path>
<path fill="#FAFAFA" d="M465.053 270.653C470.569 267.659 474.252 277.882 468.146 279.399C462.65 281.546 459.361 272.485 465.053 270.653Z"></path>
<path fill="#FAFAFA" d="M813.693 457.875C819.051 455.728 822.143 464.848 816.726 466.64C811.211 469.634 807.705 459.352 813.693 457.875Z"></path>
<path fill="#FAFAFA" d="M214.427 632.49C219.745 629.437 223.763 638.557 218.484 640.783C213.521 643.797 209.187 635.031 214.427 632.49Z"></path>
<path fill="#F9FAFA" d="M365.957 281.369C368.931 278.65 371.807 275.794 374.545 272.8C377.047 275.893 379.725 278.828 382.581 281.625C379.686 284.303 376.928 287.101 374.289 290.016C371.649 286.982 368.872 284.107 365.957 281.369Z"></path>
<path fill="#62618E" d="M170.069 381.332C181.631 350.053 196.187 319.581 215.845 292.517C211.669 305.616 204.086 317.257 199.693 330.277C189.116 356.828 183.148 384.858 179.129 413.064C173.693 425.079 171.881 438.237 169.241 451.04C155.453 525.298 165.853 603.181 196.069 672.2C190.416 672.672 184.822 673.579 179.287 674.78C137.883 583.169 135.638 475.484 170.069 381.332Z"></path>
<path fill="#E0D0DC" d="M504.33 302.228C508.88 301.716 513.745 300.672 518.196 302.267C521.663 305.517 515.636 306.62 513.508 307.566C501.139 310.993 488.985 315.898 478.782 323.836C464.541 335.102 453.117 349.462 442.717 364.235C440.176 367.426 437.359 372.192 432.514 370.951C427.865 370.104 426.191 363.998 428.692 360.315C440.688 338.53 457.982 318.084 481.658 308.728C488.946 305.773 496.569 303.567 504.33 302.228Z"></path>
<path fill="#CC6383" d="M277.635 308.039C287.779 303.213 299.715 315.405 295.264 325.471C292.23 334.196 279.841 337.269 273.262 330.671C265.797 324.407 268.495 311.151 277.635 308.039ZM279.782 314.007C274.601 315.701 273.419 323.146 277.497 326.574C281.692 330.808 290.418 327.066 289.67 320.94C289.886 315.996 284.312 312.037 279.782 314.007Z"></path>
<path fill="#F8F9FA" d="M400.368 309.122C403.126 312.155 405.942 315.11 408.877 317.966C405.726 320.487 402.87 323.363 400.309 326.495C397.807 323.284 394.951 320.408 391.839 317.808C394.833 315.07 397.669 312.175 400.368 309.122Z"></path>
<path fill="#957BB2" d="M400.762 330.336C409.133 320.724 422.901 319.64 432.258 311.151C435.232 313.672 438.009 316.587 437.733 320.822C420.183 336.659 407.045 356.986 398.319 378.87C389.337 401.837 384.039 427.817 391.524 451.946C386.796 450.036 381.715 450.764 376.909 451.867C375.825 461.499 368.124 467.487 361.289 473.278C361.289 482.043 355.596 489.351 354.926 497.998C334.047 469.615 320.594 435.696 317.049 400.596C317.994 396.144 320.476 392.205 324.691 390.235C332.275 386.099 336.175 377.373 344.29 374.064C348.584 372.055 352.977 369.967 356.384 366.539C360.107 361.103 363.849 355.588 368.793 351.136C369.955 351.392 372.319 351.865 373.481 352.121C381.971 344.065 392.863 339.042 400.762 330.336ZM342.222 400.182C336.628 402.014 339.917 410.996 345.295 409.006C351.302 407.391 347.836 397.385 342.222 400.182ZM356.719 418.422C350.829 420.076 354.02 429.491 359.733 427.463C365.346 425.414 362.352 416.452 356.719 418.422Z"></path>
<path fill="#FCF7F5" d="M279.782 314.007C284.312 312.037 289.886 315.996 289.67 320.94C290.418 327.066 281.692 330.809 277.497 326.574C273.419 323.146 274.601 315.701 279.782 314.007Z"></path>
<path fill="#FAD092" d="M207.079 528.627C183.462 459.746 190.1 382.12 221.222 316.705C221.635 319.03 222.089 321.354 222.542 323.678C223.467 323.777 225.299 323.954 226.205 324.053C206.607 366.598 197.526 414.088 200.382 460.849C204.519 518.385 227.131 574.856 265.54 618.092C269.5 621.499 268.771 626.699 268.495 631.368C240.958 602.039 219.685 566.859 207.079 528.627Z"></path>
<path fill="#FDFCFD" d="M778.613 332.798C782.848 338.904 787.949 344.38 793.976 348.772C788.087 353.007 783.005 358.227 779.125 364.353C774.851 358.326 769.808 352.869 763.761 348.615C769.71 344.38 774.851 339.101 778.613 332.798Z"></path>
<path fill="#F0EBF4" d="M742.882 355.371C748.495 354.839 749.855 363.979 743.985 364.865C737.229 366.559 736.047 355.509 742.882 355.371Z"></path>
<path fill="#AA7EA9" d="M708.964 368.47C712.568 365.121 715.602 360.571 720.388 358.838C729.271 359.763 736.618 365.298 743.985 369.868C750.367 373.886 758.285 373.729 765.081 376.742C768.646 379.776 770.419 384.956 775.442 386.079C781.883 388.265 788.304 390.846 793.386 395.553C795.395 396.006 797.345 396.538 799.315 397.247C795.749 400.793 791.751 403.846 787.673 406.781C796.301 412 802.722 419.741 808.572 427.817C808.828 427.896 809.321 428.073 809.577 428.152C818.539 429.708 825.847 435.223 832.898 440.601C833.391 441.113 834.395 442.117 834.888 442.629C835.242 443.732 835.912 445.939 836.247 447.042C844.756 449.917 849.562 458.072 852.556 466.03C854.289 473.121 854.447 480.743 858.761 486.987C859.844 497.762 859.529 508.615 859.489 519.448C852.714 512.653 847.336 504.656 842.747 496.284C833.844 512.889 821.494 528.253 804.712 537.392C820.883 547.477 834.297 561.856 842.904 578.894C846.43 572.099 850.586 565.599 855.648 559.847C856.357 573.064 853.068 585.985 850.172 598.788C846.233 615.137 841.171 631.23 834.651 646.731C831.362 644.978 828.072 643.304 824.783 641.63C821.631 631.604 818.874 621.184 812.866 612.419C808.257 605.426 801.619 600.108 794.764 595.479C797.049 595.558 799.393 595.578 801.737 595.598C802.407 594.79 803.746 593.155 804.416 592.348C800.398 581.691 795.099 571.429 787.713 562.723C789.742 561.758 792.145 561.384 793.799 559.709C794.961 556.794 792.263 554.273 791.436 551.712C791.731 550.038 792.046 548.383 792.381 546.729C794.075 546.433 795.769 546.118 797.502 545.823C793.898 539.992 788.973 535.009 785.999 528.804C783.872 522.62 783.123 516.021 780.484 509.994C776.032 512.062 771.541 514.012 767.149 516.139C773.334 510.053 778.652 502.666 780.464 494C785.29 470.855 778.948 446.431 766.026 426.931C750.978 404.003 730.69 384.956 708.964 368.47ZM813.693 457.875C807.705 459.352 811.212 469.634 816.727 466.64C822.143 464.848 819.051 455.728 813.693 457.875ZM794.961 497.112C797.719 499.85 800.418 502.647 803.077 505.522C805.677 502.706 808.355 499.948 811.074 497.23C808.395 494.236 805.716 491.222 803.096 488.209C800.437 491.222 797.719 494.197 794.961 497.112ZM804.869 587.147C807.371 589.728 809.872 592.308 812.354 594.928C814.816 592.328 817.318 589.747 819.859 587.207C817.337 584.626 814.836 582.026 812.354 579.446C809.892 582.026 807.39 584.607 804.869 587.147Z"></path>
<path fill="#F8C0A6" d="M586.171 365.751C608.744 385.37 626.216 410.149 649.34 429.176C663.384 440.916 680.521 447.908 697.716 453.64C711.642 458.702 727.302 463.843 735.633 477.099C740.834 484.703 741.365 494.236 739.829 503.06C737.308 497.112 735.062 490.809 730.453 486.121C723.067 478.124 712.785 473.79 702.621 470.599C686.962 465.636 671.066 460.298 657.455 450.823C630.096 431.028 615.855 398.074 588.279 378.594C587.984 374.261 586.94 370.006 586.171 365.751Z"></path>
<path fill="#3C3575" d="M511.972 374.773C515.38 373.61 516.049 377.688 516.581 380.13C517.783 388.088 516.719 397.07 510.948 403.117C506.831 407.864 500.41 409.203 494.698 410.897C499.169 414.699 505.058 416.787 508.958 421.179C504.448 428.881 495.348 420.312 490.62 416.649C482.485 409.538 470.687 405.894 460.247 409.597C454.318 411.547 450.458 416.767 445.652 420.411C446.124 410.523 455.067 403.137 464.246 401.305C474.055 398.783 483.726 404.18 493.575 402.703C498.676 401.896 503.975 399.512 506.516 394.746C510.14 388.639 509.077 381.115 511.972 374.773Z"></path>
<path fill="#F5F3F8" d="M342.222 400.182C347.836 397.385 351.302 407.391 345.295 409.006C339.917 410.996 336.628 402.014 342.222 400.182Z"></path>
<path fill="#8B79B5" d="M169.241 451.04C171.881 438.237 173.693 425.079 179.129 413.064C171.546 492.916 198.176 576.038 252.875 635.051C255.141 637.749 257.485 640.409 259.829 643.068C244.898 651.656 232.509 663.809 222.049 677.38C213.599 674.78 204.952 672.574 196.069 672.2C165.853 603.181 155.453 525.298 169.241 451.04ZM168.808 527.879C163.923 532.153 171.369 540.17 175.505 534.615C179.622 530.597 173.082 524.609 168.808 527.879ZM191.184 574.856C187.363 581.238 182.163 586.655 176.076 590.929C182.005 595.263 187.284 600.463 191.322 606.648C195.301 600.542 200.382 595.243 206.252 590.929C200.205 586.616 195.182 581.081 191.184 574.856ZM214.427 632.49C209.187 635.031 213.521 643.797 218.484 640.783C223.763 638.557 219.745 629.437 214.427 632.49Z"></path>
<path fill="#E0D1DF" d="M650.502 413.005C658.066 413.753 664.605 417.89 671.46 420.844C684.342 426.753 697.46 432.229 711.031 436.444C725.627 441.31 741.326 446.884 750.938 459.667C759.014 470.048 761.043 483.58 761.397 496.383C760.452 496.245 758.58 495.989 757.655 495.871C754.148 487.125 752.809 477.296 746.644 469.812C735.85 455.373 717.689 450.469 701.695 444.225C685.268 437.961 669.175 430.358 655.013 419.84C652.531 418.323 651.408 415.585 650.502 413.005Z"></path>
<path fill="#D74D87" d="M397.256 426.379C401.294 426.793 405.331 427.384 409.35 428.191C407.794 433.352 402.948 436.484 397.886 437.488C397.63 433.785 397.433 430.082 397.256 426.379Z"></path>
<path fill="#FBFBFA" d="M835.478 434.357C839.122 430.969 844.637 436.76 841.762 440.541C840.481 443.279 837.251 442.432 834.887 442.629C834.395 442.117 833.39 441.113 832.898 440.601C833.706 438.611 833.036 435.282 835.478 434.357Z"></path>
<path fill="#A97EA9" d="M376.909 451.867C381.715 450.764 386.797 450.035 391.524 451.946C394.971 464.808 402.751 475.937 411.851 485.471C407.774 485.628 403.716 485.884 399.679 486.16C401.392 490.08 403.086 494 404.938 497.88C400.604 494.236 396.685 490.139 393.218 485.687C389.337 490.887 384.886 495.615 379.804 499.633C382.562 501.938 385.359 504.222 387.919 506.783C383.31 509.915 378.8 513.145 374.348 516.494C376.101 519.724 377.834 522.954 379.745 526.106C370.684 517.459 362.411 508.024 354.927 497.998C355.596 489.351 361.289 482.043 361.289 473.278C368.124 467.487 375.825 461.499 376.909 451.867Z"></path>
<path fill="#C7849C" d="M640.161 448.145C660.016 463.784 675.124 484.23 693.481 501.406C692.536 501.544 690.645 501.8 689.719 501.938C680.954 497.151 672.287 492.128 662.97 488.484C650.108 483.304 636.694 479.64 623.064 477.198C629.544 467.999 635.67 458.525 640.161 448.145Z"></path>
<path fill="#CC6387" d="M543.783 454.211C551.347 452.813 559.797 452.576 566.632 456.614C571.635 459.411 574.826 466.364 571.261 471.486C567.144 478.439 558.26 479.64 550.953 480.015C543.035 480.133 534.427 480.428 527.375 476.312C523.239 473.987 521.446 467.96 524.775 464.237C529.542 458.663 536.81 455.866 543.783 454.211ZM529.05 468.571C528.537 472.53 534.328 472.825 537.224 473.515C547.466 474.165 560.92 476.213 567.951 466.758C565.076 460.199 557.197 459.096 550.874 459.195C542.916 459.707 534.348 462.366 529.05 468.571Z"></path>
<path fill="#F9C0CC" d="M529.049 468.571C534.348 462.366 542.916 459.707 550.874 459.195C557.196 459.096 565.075 460.199 567.951 466.758C560.919 476.213 547.466 474.165 537.224 473.515C534.328 472.825 528.537 472.53 529.049 468.571Z"></path>
<path fill="#B37FA2" d="M399.678 486.16C403.716 485.884 407.774 485.628 411.851 485.471C423.059 497.486 437.851 505.424 452.92 511.53C444.155 512.16 435.271 512.101 426.664 513.933C424.891 517.4 424.576 521.339 423.433 525.003C421.818 530.656 418.174 535.423 416.362 540.977C415.259 545.271 415.929 549.762 416.086 554.135C403.007 546.138 390.736 536.801 379.745 526.106C377.834 522.954 376.101 519.724 374.348 516.494C378.799 513.145 383.31 509.915 387.919 506.783C389.731 508.91 391.425 511.116 393.159 513.342C397.098 508.201 401.668 503.572 406.769 499.574C406.316 499.16 405.391 498.294 404.938 497.88C403.086 494 401.392 490.08 399.678 486.16Z"></path>
<path fill="#FCFCFB" d="M379.804 499.633C384.886 495.615 389.338 490.887 393.218 485.687C396.685 490.139 400.604 494.236 404.938 497.88C405.391 498.294 406.317 499.16 406.77 499.574C401.668 503.572 397.098 508.201 393.159 513.342C391.426 511.116 389.732 508.91 387.919 506.783C385.359 504.222 382.562 501.938 379.804 499.633Z"></path>
<path fill="#3C3579" d="M662.97 488.484C672.287 492.128 680.954 497.151 689.719 501.937C722.673 522.501 751.214 551.594 766.282 587.837C776.209 588.31 785.999 590.693 794.764 595.479C801.619 600.108 808.257 605.426 812.866 612.419C818.874 621.184 821.631 631.604 824.783 641.63C828.072 643.304 831.362 644.978 834.651 646.731C839.831 649.607 844.894 652.719 849.66 656.284C864.669 668.398 876.764 686.5 875.857 706.473C873.927 712.126 870.933 717.72 870.874 723.787C873.632 727.431 877.079 730.464 880.092 733.911C886.1 745.138 886.868 759.557 880.486 770.804C876.606 777.993 870.362 783.489 863.901 788.315C863.271 801.847 857.48 815.201 846.922 823.888C835.872 833.579 820.174 836.691 805.992 833.618C802.82 832.417 799.767 830.979 796.734 829.58C791.002 831.747 785.231 833.874 779.341 835.548C774.2 836.277 768.39 835.982 764.647 840.217C750.209 853.453 731.064 861.214 711.544 862.179C693.442 861.686 675.793 855.206 661.611 843.959C648.611 858.889 628.067 866.079 608.567 862.77C590.445 889.597 561.392 909.157 529.187 913.864C492.354 919.852 453.787 900.687 434.405 869.171C405.312 877.09 372.733 877.602 345.59 863.006C337.16 859.283 330.522 850.853 320.614 851.405C295.559 850.262 272.967 833.401 262.507 810.966C258.135 812.798 253.801 814.669 249.369 816.285C243.559 818.353 237.531 819.85 231.406 820.519C223.921 821.032 216.396 821.426 208.892 821.091C183.66 816.442 159.275 803.836 144.088 782.661C129.355 763.575 123.189 736.688 133.294 714.076C136.308 708.088 139.873 702.396 143.93 697.058C153.129 686.342 165.479 678.148 179.287 674.78C184.822 673.579 190.416 672.672 196.069 672.2C204.952 672.574 213.599 674.78 222.049 677.38C232.509 663.809 244.898 651.656 259.829 643.068C257.485 640.409 255.141 637.749 252.875 635.051C251.319 629.398 250.078 623.686 248.66 617.993C249.33 617.639 250.689 616.89 251.359 616.516C256.322 622.583 261.818 628.236 268.476 632.431C270.13 633.909 271.667 635.504 273.262 637.099C274.188 636.902 276.02 636.508 276.926 636.312C291.186 632.963 306.491 632.628 320.259 638.222C341.06 645.963 356.502 663.277 367.513 681.989C380.375 671.786 394.813 663.159 410.807 658.904C423.02 655.3 435.823 654.512 448.488 654.354C448.232 653.093 447.72 650.572 447.464 649.331C447.424 645.136 447.956 640.96 448.98 636.922C449.67 642.989 450.399 649.056 450.832 655.162C452.782 653.271 454.752 651.38 456.721 649.528C458.376 659.357 465.27 666.941 473.346 672.259C471.691 661.662 475.099 650.947 482.032 642.871C487.922 641.374 490.916 635.268 496.667 633.357C495.151 637.415 493.654 641.472 492.176 645.549C488.296 651.183 483.529 656.777 482.741 663.848C481.737 671.412 486.464 678.404 492.117 682.974C500.469 689.947 511.46 692.98 522.214 692.803C523.455 689.021 524.716 685.239 525.977 681.477C530.448 670.979 535.687 660.657 543.231 651.99C558.221 634.283 580.774 624.257 603.564 621.736C609.217 620.613 617.214 623.725 620.72 617.619C631.396 603.831 636.694 586.517 637.404 569.203C638.132 564.693 637.699 557.562 643.569 556.577C646.504 559.256 646.937 563.353 647.095 567.096C647.804 586.931 641.441 606.766 629.741 622.76C645.519 626.699 661.139 634.736 670.475 648.445C672.839 651.636 673.41 656.541 669.155 658.451C662.478 655.457 658.775 648.406 652.629 644.525C621.291 621.184 573.604 631.427 549.554 660.598C530.369 684.432 525.661 716.971 529.995 746.576C530.054 749.984 532.26 756.129 527.178 756.976C523.948 758.867 522.924 753.923 521.151 752.288C510.12 734.364 498.735 716.184 483.096 701.844C472.775 692.291 459.578 686.618 445.987 683.604C452.211 687.367 458.435 691.818 461.114 698.929C459.971 699.402 457.726 700.367 456.603 700.859C450.891 694.536 443.682 688.391 434.582 688.864C428.397 687.898 424.438 693.039 420.479 696.782C435.449 693.414 451.246 701.706 457.332 715.671C459.282 718.468 456.249 720.359 454.673 722.29C449.552 715.711 444.765 708.049 436.63 704.917C430.839 702.218 424.379 703.341 418.43 704.7C417.741 721.659 429.461 735.132 439.664 747.325C441.358 749.255 443.15 751.107 444.982 752.938C461.784 769.563 481.264 785.163 504.684 790.856C515.36 793.534 526.863 791.131 535.392 784.158C543.96 777.107 555.424 774.94 566.179 777.343C593.105 782.642 619.637 792.116 647.449 791.013C677.33 790.324 706.856 777.324 726.691 754.77C752.1 726.938 765.474 689.277 766.853 651.892C768.311 616.102 755.567 580.214 732.58 552.855C711.091 527.17 682.865 507.138 651.507 495.339C655.289 493.015 659.11 490.71 662.97 488.484ZM771.522 602.826C778.219 627.231 779.597 653.153 774.614 678.01C785.743 670.703 799.61 665.916 812.905 669.619C826.398 672.732 838.413 684.707 838.295 699.106C838.433 714.47 821.355 726.091 806.996 722.743C800.122 720.655 800.575 709.23 807.843 708.246C813.713 707.635 821.927 706.394 822.852 699.146C821.828 687.367 807.548 681.654 797.207 684.57C781.705 688.706 768.508 700.958 763.071 716.046C781.134 719.65 798.349 729.322 809.182 744.449C821.099 760.975 823.975 783.115 817.928 802.437C815.387 807.894 812.669 813.291 809.537 818.451C823.739 821.741 839.831 814.512 845.543 800.842C849.837 792.825 845.209 781.164 854.269 775.767C862.66 770.213 871.189 761.487 869.2 750.496C868.235 740.411 858.938 735.25 852.536 728.79C852.674 718.961 861.124 711.22 860.001 701.115C858.682 684.747 846.115 671.668 832.957 663.159C826.024 658.234 816.116 657.033 811.487 649.312C807.666 640.881 806.917 631.249 801.835 623.351C795.513 612.261 783.813 605.328 771.522 602.826ZM233.099 688.529C229.81 693.945 222.818 694.733 217.519 691.976C200.678 684.865 180.567 687.15 165.715 697.786L165.322 698.791C145.624 711.397 138.849 739.21 148.658 760.148C160.988 788.196 191.282 806.909 221.833 806.081C235.128 805.687 248.838 802.201 259.612 794.165L257.8 793.259C256.263 775.452 258.154 754.987 272.415 742.4C270.544 734.6 267.904 725.756 260.144 721.856C247.794 715.474 231.622 728.987 235.128 742.263C236.29 746.419 240.683 750.91 245.312 748.704C249.704 746.537 256.303 745.296 258.686 750.949C262.074 757.311 255.377 763.161 249.566 764.225C235.345 768.381 220.69 756.543 219.508 742.302C215.924 720.694 238.457 700.426 259.553 705.488C273.459 708.187 283.721 720.793 285.888 734.443C289.079 733.359 292.289 732.335 295.52 731.331C300.877 721.975 306.393 712.224 315.315 705.764C327.173 696.605 342.498 693.315 357.27 693.748C350.061 681.162 341.926 668.536 329.813 660.145C316.556 650.415 299.046 646.416 283.032 650.71C261.976 655.812 245.233 671.195 233.099 688.529ZM374.742 695.344C386.678 694.162 398.93 695.876 409.586 701.568C412.383 691.365 419.139 681.989 429.283 678.148C443.15 671.904 458.514 676.277 472.046 681.182C463.517 678.129 458.12 668.241 448.291 669.363C421.542 667.63 394.518 677.301 374.742 695.344ZM475.158 682.915C479.629 686.874 484.731 690.045 489.695 693.394C485.105 689.592 481.264 684.235 475.158 682.915ZM490.522 694.3C501.414 704.602 510.534 716.617 518.058 729.538C518.078 720.694 518.571 711.85 519.792 703.085C509.49 702.415 499.326 699.776 490.522 694.3ZM318.093 724.456C313.582 729.479 311.396 735.999 307.515 741.416C303.852 745.867 297.765 746.694 292.526 748.172C277.457 752.682 272.12 769.543 272.868 783.784C271.332 812.188 298.061 837.892 326.247 836.041C335.682 834.977 341.848 843.526 349.549 847.386C374.604 862.435 405.903 861.746 433.085 853.335C440.373 850.242 445.533 856.821 448.744 862.356C464.384 887.746 495.584 903.326 525.287 898.363C536.101 896.866 547.21 894.226 556.586 888.455C570.729 882.841 582.212 871.909 591.588 860.17C595.429 855.659 597.989 849.12 604.096 847.229C609.965 846.362 615.815 848.45 621.725 848.155C634.035 847.524 645.598 840.512 652.039 830.013C654.639 824.577 662.183 823.336 666.358 827.689C675.537 835.903 686.331 842.817 698.622 845.101C718.241 849.474 739.376 842.58 753.774 828.832C757.478 825.148 761.712 820.854 767.444 821.485C777.45 821.76 788.047 819.003 794.981 811.4C806.543 798.537 808.375 778.919 801.796 763.279C794.666 745.119 776.209 733.576 757.556 730.346C751.647 737.693 747.432 746.399 741.385 753.746C748.515 758.828 754.976 765.328 758.108 773.68C763.643 787.921 757.655 806.298 743.65 813.172C733.112 818.589 719.56 814.472 712.154 805.707C708.333 801.118 712.115 792.707 718.339 793.377C723.973 794.637 727.932 800.724 734.254 799.857C741.306 798.557 745.068 790.501 744.615 783.902C743.749 775.866 737.406 769.996 731.103 765.722C715.483 781.834 695.116 792.825 673.39 798.124C662.064 800.35 650.561 801.669 639.019 801.433C616.269 800.35 594.267 794.283 572.245 789.043C563.027 786.955 552.253 784.749 544.177 791.112C536.515 796.686 528.005 801.256 518.472 802.477C515.734 807.027 512.504 811.675 512.169 817.171C511.223 826.33 517.921 836.139 527.257 837.459C531.118 837.341 534.919 835.588 538.819 836.277C544.669 838.207 545.93 847.308 540.395 850.38C531.669 855.344 520.343 853.63 512.307 848.076C497.002 838.267 491.546 816.166 501.414 800.665C475.394 793.889 453.471 776.752 435.232 757.587C425.738 747.108 416.244 736.117 410.945 722.841C409.625 718.449 404.938 716.755 401.313 714.687C393.474 710.353 384.275 710.156 375.589 710.924C366.233 711.653 357.034 708.423 347.678 709.565C336.411 710.59 325.302 715.593 318.093 724.456Z"></path>
<path fill="#FAF8F8" d="M794.961 497.112C797.719 494.197 800.437 491.222 803.096 488.209C805.716 491.222 808.395 494.236 811.073 497.23C808.355 499.948 805.676 502.706 803.076 505.522C800.417 502.647 797.719 499.85 794.961 497.112Z"></path>
<path fill="#E0D0DD" d="M637.994 499.2C638.822 498.904 640.476 498.313 641.303 498.037C654.225 500.066 666.614 505.897 676.778 514.11C680.481 516.947 684.046 522.757 679.752 526.736C674.946 530.617 670.337 524.904 666.437 522.462C658.381 515.844 648.158 513.106 639.117 508.28C635.552 506.704 635.099 501.603 637.994 499.2Z"></path>
<path fill="#BB82A0" d="M693.481 501.406C705.3 511.038 717.276 522.423 733.073 524.57C745.068 526.48 757.044 522.482 767.149 516.139C771.541 514.012 776.032 512.062 780.484 509.994C783.123 516.021 783.872 522.62 785.999 528.804C788.973 535.009 793.897 539.992 797.502 545.823C795.769 546.118 794.075 546.433 792.381 546.729C792.046 548.383 791.731 550.038 791.435 551.712C789.111 553.367 785.782 554.253 784.916 557.306C785.684 559.177 786.629 560.99 787.713 562.723C795.099 571.429 800.398 581.691 804.416 592.348C803.746 593.155 802.407 594.79 801.737 595.598C799.393 595.578 797.049 595.558 794.764 595.479C785.999 590.693 776.209 588.31 766.282 587.837C751.214 551.594 722.673 522.501 689.719 501.938C690.645 501.8 692.536 501.544 693.481 501.406Z"></path>
<path fill="#BF829D" d="M426.664 513.933C435.271 512.101 444.155 512.16 452.92 511.53C462.985 515.154 473.346 517.873 483.825 520.02C484.494 531.858 486.641 543.558 487.311 555.376C485.243 563.708 479.944 570.878 476.754 578.835C472.617 577.969 468.5 577.063 464.462 575.959C447.464 570.858 431.174 563.471 416.086 554.135C415.929 549.762 415.259 545.271 416.362 540.977C418.174 535.423 421.818 530.656 423.433 525.003C424.576 521.339 424.891 517.4 426.664 513.933ZM432.218 539.441C435.311 542.435 438.305 545.547 441.18 548.777C443.879 545.468 447.09 542.553 449.552 539.047C446.814 536.014 443.918 533.158 441.22 530.104C438.265 533.276 435.271 536.388 432.218 539.441Z"></path>
<path fill="#C85F80" d="M309.465 530.538C312.932 527.367 314.646 522.6 318.447 519.783C321.894 522.974 323.411 527.82 327.193 530.735C330.62 533.453 334.54 535.462 338.066 538.102C337.928 541.805 333.929 542.789 331.487 544.68C325.637 547.753 321.835 553.229 318.132 558.488C314.449 554.037 311.494 548.699 306.373 545.705C303.281 543.558 299.065 542.1 298.297 537.924C302.118 535.639 306.097 533.512 309.465 530.538ZM305.27 539.5C310.214 542.435 314.685 546.177 317.64 551.18C321.619 546.867 325.913 542.868 330.502 539.205C325.913 535.521 321.717 531.365 318.014 526.815C314.528 531.759 310.234 536.053 305.27 539.5Z"></path>
<path fill="#EBC3CA" d="M273.932 528.292C274.641 527.485 276.059 525.909 276.768 525.101C277.123 535.068 277.379 545.074 276.768 555.021C275.941 555.297 274.306 555.868 273.479 556.144C273.676 546.867 272.789 537.511 273.932 528.292Z"></path>
<path fill="#F2F1F8" d="M168.808 527.879C173.082 524.609 179.622 530.597 175.505 534.615C171.369 540.17 163.923 532.153 168.808 527.879Z"></path>
<path fill="#F6BFA6" d="M305.27 539.5C310.234 536.053 314.528 531.759 318.014 526.815C321.717 531.365 325.913 535.521 330.502 539.205C325.913 542.868 321.619 546.867 317.64 551.18C314.685 546.177 310.214 542.435 305.27 539.5Z"></path>
<path fill="#FAF9F9" d="M432.218 539.441C435.271 536.388 438.265 533.276 441.22 530.104C443.918 533.157 446.814 536.014 449.552 539.047C447.09 542.553 443.879 545.468 441.18 548.777C438.305 545.547 435.311 542.435 432.218 539.441Z"></path>
<path fill="#FAF9F9" d="M784.916 557.306C785.783 554.253 789.112 553.367 791.436 551.712C792.263 554.273 794.961 556.794 793.799 559.709C792.145 561.384 789.742 561.758 787.713 562.723C786.63 560.99 785.684 559.177 784.916 557.306Z"></path>
<path fill="#FAF9F9" d="M804.869 587.147C807.39 584.606 809.892 582.026 812.354 579.446C814.836 582.026 817.337 584.626 819.858 587.207C817.317 589.747 814.816 592.328 812.354 594.928C809.872 592.308 807.37 589.728 804.869 587.147Z"></path>
<path fill="#CD6182" d="M343.739 535.304C347.698 533.551 351.125 537.176 353.981 539.401C370.606 553.505 372.103 581.967 356.542 597.41C347.323 606.884 332.334 609.858 320.141 604.796C313.799 602.157 306.846 598.414 304.719 591.382C312.223 588.073 320.535 586.556 327.429 581.947C336.47 576.058 343.364 566.249 344.251 555.317C345.058 548.62 342.734 541.962 343.739 535.304ZM347.501 542.888C347.619 551.436 348.19 560.3 345.019 568.435C340.016 582.42 326.917 592.643 312.499 595.46C318.388 599.241 324.849 602.925 332.137 602.511C348.939 603.338 364.046 587.778 363.495 571.114C363.377 559.709 356.483 549.447 347.501 542.888Z"></path>
<path fill="#62618D" d="M855.648 559.847C861.616 552.54 868.471 545.862 876.586 540.938C873.671 580.45 865.004 619.707 849.66 656.285C844.893 652.719 839.831 649.607 834.651 646.731C841.171 631.23 846.233 615.137 850.172 598.788C853.068 585.985 856.357 573.064 855.648 559.847Z"></path>
<path fill="#FEFCFC" d="M347.501 542.888C356.483 549.447 363.377 559.709 363.495 571.114C364.046 587.778 348.938 603.339 332.137 602.511C324.849 602.925 318.388 599.241 312.499 595.46C326.917 592.643 340.016 582.42 345.019 568.435C348.19 560.3 347.619 551.436 347.501 542.888Z"></path>
<path fill="#DFD0DC" d="M704.768 543.617C708.136 542.908 711.819 542.455 714.557 545.114C728.7 556.577 739.967 571.981 745.305 589.491C746.467 593.45 747.294 600.049 741.936 601.172C737.524 602.649 735.909 597.173 734.57 594.179C729.921 581.553 722.535 570.031 713.06 560.497C708.766 555.77 701.853 550.944 704.768 543.617Z"></path>
<path fill="#E1D2DC" d="M681.131 549.762C685.071 547.083 690.546 550.826 690.271 555.396C690.507 560.734 682.55 563.038 679.634 558.823C677.251 556.184 678.059 551.515 681.131 549.762Z"></path>
<path fill="#F9C0A5" d="M277.556 561.246C282.264 567.726 287.818 573.576 294.318 578.284C288.252 583.641 282.283 589.137 277.241 595.46C273.085 589.019 267.648 583.582 261.306 579.308C267.491 574.029 272.967 567.982 277.556 561.246Z"></path>
<path fill="#DECEDC" d="M620.11 565.579C622.138 560.95 630.175 561.758 630.214 567.135C630.687 578.244 627.516 589.452 622.808 599.478C618.593 608.48 610.084 613.975 602.402 619.707C602.678 620.219 603.269 621.243 603.564 621.736C580.774 624.257 558.221 634.283 543.232 651.991C535.688 660.657 530.448 670.979 525.977 681.477L526.174 678.542C516.384 682.265 502.754 690.42 494.58 679.567C498.007 672.338 506.693 673.657 513.036 671.057C522.175 667.669 526.666 658.372 532.182 651.045C541.853 637.08 554.892 625.321 570.433 618.249C582.35 611.769 596.394 608.637 606.479 599.123C615.757 590.279 614.516 576.294 620.11 565.579Z"></path>
<path fill="#FDFCFC" d="M191.184 574.856C195.182 581.081 200.205 586.616 206.252 590.929C200.382 595.243 195.301 600.541 191.322 606.648C187.284 600.463 182.005 595.263 176.076 590.929C182.163 586.655 187.363 581.238 191.184 574.856Z"></path>
<path fill="#FDFCFC" d="M374.742 695.344C394.518 677.301 421.542 667.63 448.291 669.363C458.12 668.241 463.517 678.129 472.046 681.182C458.514 676.277 443.15 671.904 429.283 678.148C419.139 681.989 412.383 691.365 409.586 701.568C398.93 695.876 386.678 694.162 374.742 695.344Z"></path>
<path fill="#DFCFDD" d="M695.353 579.899C704.256 579.879 710.283 588.96 712.745 596.681C714.695 602.117 713.612 610.942 706.403 611.336C701.892 610.587 700.533 605.958 698.76 602.492C696.416 597.055 692.674 592.367 690.33 586.931C690.271 583.858 692.142 580.549 695.353 579.899Z"></path>
<path fill="#F3CACC" d="M273.38 600.049C274.286 600.719 276.098 602.058 277.024 602.708C276.965 613.916 277.241 625.124 276.926 636.312C276.02 636.508 274.188 636.902 273.262 637.099C272.908 624.749 273.282 612.399 273.38 600.049Z"></path>
<path fill="#CF6187" d="M751.962 624.946C752.888 624.73 754.739 624.316 755.685 624.099C761.161 662.115 753.853 702.77 731.891 734.699C715.168 758.966 688.912 777.56 659.346 781.539C634.764 785.301 610.379 778.525 586.526 773.443C579.139 771.69 571.241 771.828 564.445 768.145C564.859 766.983 565.686 764.619 566.1 763.437C596.63 759.163 626.609 773.739 657.16 768.164C687.355 763.595 712.647 742.302 727.735 716.479C744.28 688.962 750.721 656.698 751.962 624.946Z"></path>
<path fill="#D6C7E0" d="M475.158 682.915C481.264 684.235 485.105 689.592 489.694 693.394C484.731 690.045 479.629 686.874 475.158 682.915Z"></path>
<path fill="#FDFCFB" d="M490.522 694.3C499.326 699.776 509.49 702.415 519.792 703.085C518.57 711.85 518.078 720.694 518.058 729.538C510.534 716.617 501.414 704.602 490.522 694.3Z"></path>
<path fill="#91C0D6" d="M148.658 760.148C138.849 739.21 145.624 711.397 165.322 698.791C162.387 706.571 158.9 714.391 158.723 722.841C158.329 736.59 163.273 750.338 172.019 760.936C184.881 776.752 204.578 786.148 224.61 788.63C235.68 790.009 247.774 786.916 257.8 793.259L259.612 794.165C248.838 802.201 235.128 805.687 221.833 806.081C191.282 806.909 160.988 788.196 148.658 760.148Z"></path>
<path fill="#90C0D5" d="M852.536 728.79C858.938 735.25 868.235 740.411 869.2 750.496C871.189 761.487 862.66 770.213 854.269 775.767C845.209 781.165 849.837 792.825 845.543 800.842C839.831 814.512 823.739 821.741 809.537 818.451C812.669 813.291 815.387 807.894 817.928 802.437L819.425 804.407C823.089 800.684 826.969 796.528 827.796 791.151C828.407 785.458 827.264 779.707 828.151 774.034C831.361 766.648 842.609 767.337 845.268 759.439C847.06 752.032 841.545 744.804 843.534 737.378C844.578 732.946 849.148 731.153 852.536 728.79Z"></path>
<path fill="#E0D0DE" d="M441.87 740.825C464.147 747.935 482.84 763.023 504.783 770.961C511.046 773.167 517.625 770.961 524.047 771.355C528.892 772.261 528.695 779.431 525.051 781.815C516.502 788.452 504.369 786.384 495.111 782.346C479.492 775.177 465.782 764.56 451.659 754.888C449.729 753.411 447.287 753.195 444.982 752.938C443.15 751.107 441.358 749.255 439.664 747.325C440.215 745.69 441.318 742.44 441.87 740.825Z"></path>
<path fill="#90C0D6" d="M272.868 783.784C272.12 769.543 277.457 752.682 292.526 748.172C289.729 757.764 287.129 767.77 288.586 777.855C290.418 796.075 302.276 812.798 318.585 820.972C327.016 825.542 337.731 823.415 345.393 829.757C357.093 838.444 372.575 842.344 386.816 838.464C394.065 836.632 400.033 831.629 407.262 829.757C417.859 828.123 425.423 837.341 434.424 841.142C444.844 846.52 456.82 844.964 468.087 846.264C470.884 857.905 476.025 869.171 484.534 877.779C495.111 889.302 509.983 895.96 525.287 898.363C495.584 903.326 464.384 887.746 448.744 862.356C445.533 856.821 440.373 850.242 433.085 853.335C405.903 861.746 374.604 862.435 349.549 847.386C341.847 843.526 335.682 834.977 326.247 836.041C298.061 837.892 271.332 812.188 272.868 783.784Z"></path>
<path fill="#3D3479" d="M352.878 749.649C370.921 744.646 391.071 756.878 396.034 774.704C400.427 789.575 393.612 806.219 381.636 815.497C375.766 819.771 367.08 812.66 370.527 806.121C374.309 800.744 379.843 796.292 381.321 789.556C385.634 775.886 371.196 761.073 357.467 764.481C351.44 765.978 345.393 769.957 343.305 776.043C342.261 781.854 347.52 786.896 352.74 788.354C356.364 789.693 361.545 789.95 362.707 794.48C364.854 799.956 359.279 805.431 353.823 804.722C339.307 803.245 325.538 789.319 327.922 774.113C329.911 761.664 341.316 752.84 352.878 749.649Z"></path>
<path fill="#90C1D6" d="M639.019 801.433C650.561 801.669 662.064 800.35 673.39 798.124C689.049 815.378 712.351 826.507 735.948 823.71C742.507 822.43 748.988 824.045 753.774 828.832C739.376 842.58 718.241 849.474 698.622 845.101C686.331 842.817 675.537 835.903 666.358 827.689C662.183 823.336 654.638 824.577 652.038 830.013C645.597 840.512 634.035 847.524 621.724 848.155C615.815 848.45 609.965 846.362 604.095 847.229C597.989 849.12 595.429 855.659 591.588 860.17C582.212 871.909 570.729 882.841 556.586 888.455C563.972 879.512 571.3 870.117 575.003 858.968C578.607 849.474 579.317 839.232 579.159 829.186C578.371 822.844 585.501 819.712 590.485 818.116C599.999 817.506 609.926 820.539 619.124 816.875C627.476 814.374 633.779 808.11 639.019 801.433Z"></path>
<path fill="#D7E2EF" d="M249.369 816.285C253.801 814.669 258.134 812.798 262.507 810.966C272.966 833.401 295.559 850.262 320.614 851.405C330.521 850.853 337.159 859.284 345.59 863.006C372.732 877.602 405.312 877.09 434.404 869.171C453.786 900.687 492.353 919.852 529.187 913.864C561.392 909.157 590.445 889.597 608.567 862.77C628.067 866.079 648.611 858.89 661.611 843.959C675.793 855.206 693.442 861.687 711.543 862.179C704.965 869.231 695.904 872.835 687.473 877.109C614.515 914.061 529.62 926.727 449.02 912.958C381.36 901.652 316.793 872.244 264.103 828.3C259.257 824.203 254.353 820.185 249.369 816.285Z"></path>
<path fill="#62608E" d="M208.892 821.091C216.396 821.426 223.921 821.032 231.406 820.52C312.676 899.308 428.062 941.559 541.006 933.404C618.14 928.775 692.95 899.781 755.035 854.143C763.347 848.214 770.793 841.142 779.341 835.548C785.231 833.874 791.002 831.747 796.734 829.58C799.767 830.979 802.82 832.417 805.992 833.618C766.932 871.732 719.659 901.258 669.175 921.783C589.362 954.165 499.425 960.842 415.771 940.259C345.669 923.555 279.743 889.046 226.737 840.138C220.553 834.032 213.737 828.379 208.892 821.091Z"></path>
</svg>
